<?xml version="1.0" encoding="utf-8"?>
<!-- Svg Vector Icons : http://www.onlinewebfonts.com/icon -->
<!DOCTYPE svg PUBLIC "-//W3C//DTD SVG 1.1//EN" "http://www.w3.org/Graphics/SVG/1.1/DTD/svg11.dtd">
<svg version="1.1" xmlns="http://www.w3.org/2000/svg" xmlns:xlink="http://www.w3.org/1999/xlink" x="0px" y="0px" viewBox="0 0 1000 1000" enable-background="new 0 0 1000 1000" xml:space="preserve">
<metadata> Svg Vector Icons : http://www.onlinewebfonts.com/icon </metadata>
<g><g transform="translate(0.000000,511.000000) scale(0.100000,-0.100000)"><path d="M4577.1,3048.2c-711.9-63-1517.1-340.8-2189.2-756.2C1683,1855.5,933.8,1146,399.3,413.2C105.3,7.1,60.9-112,126.3-312.7c63-182,588.1-742.2,1045.6-1108.6C3137-3006,5524.6-3283.8,7674.2-2182.1C8414-1801.7,9254.3-1134.2,9723.4-553c284.7,354.7,252.1,492.4-296.4,1199.6c-221.7,289.4-898.6,975.6-1181,1199.6C7118.7,2744.8,5844.4,3162.5,4577.1,3048.2z M5158.2,2007.2c114.4-53.7,170.4-154,170.4-303.4c0-102.7-11.7-135.4-70-203c-81.7-93.4-158.7-121.4-373.4-140c-448.1-39.7-807.5-415.4-863.6-896.2c-23.3-214.7-39.7-256.7-137.7-338.4c-100.4-84-214.7-98-340.8-42c-147,65.4-198.4,158.7-198.4,366.4c0,672.2,539.1,1360.7,1202,1535.7c205.4,53.7,219.4,56,380.4,58.3C5022.9,2046.9,5106.9,2032.9,5158.2,2007.2z M3137,1591.8c-114.4-193.7-140-242.7-200.7-396.8C2787,816.9,2747.3,352.5,2829-41.9c93.4-452.8,287.1-812.2,609.2-1132c301.1-303.4,632.5-490.1,1050.3-597.5c245.1-63,779.5-63,1026.9,0c1146,291.7,1869.5,1391,1668.8,2537c-49,291.7-135.4,513.5-301.1,798.2l-67.7,114.4l114.3-58.3C7443.1,1358.4,8183,714.3,8677.8,100.4l184.4-231.1l-268.4-259.1c-665.2-641.8-1470.4-1113.3-2319.9-1356c-732.8-210-1617.4-228.7-2361.9-46.7c-921.9,224.1-1911.5,793.5-2607,1500.7l-161,165.7l182,228.7c392.1,487.8,917.2,975.6,1395.7,1297.7c198.4,133,422.4,268.4,455.1,273.1C3181.4,1673.5,3162.7,1636.2,3137,1591.8z"/></g></g>
</svg>